<?xml version="1.0" encoding="UTF-8" standalone="no"?>
<!-- Created with Inkscape (http://www.inkscape.org/) -->

<svg
   xmlns:dc="http://purl.org/dc/elements/1.1/"
   xmlns:cc="http://creativecommons.org/ns#"
   xmlns:rdf="http://www.w3.org/1999/02/22-rdf-syntax-ns#"
   xmlns:svg="http://www.w3.org/2000/svg"
   xmlns="http://www.w3.org/2000/svg"
   xmlns:sodipodi="http://sodipodi.sourceforge.net/DTD/sodipodi-0.dtd"
   xmlns:inkscape="http://www.inkscape.org/namespaces/inkscape"
   width="155"
   height="140"
   id="svg2"
   version="1.1"
   inkscape:version="0.48.4 r9939"
   sodipodi:docname="agogo-circles.svg"
   inkscape:export-filename="/home/johnlinp/something/uptu/wedding-invitation/home.png"
   inkscape:export-xdpi="90"
   inkscape:export-ydpi="90">
  <defs
     id="defs4" />
  <sodipodi:namedview
     id="base"
     pagecolor="#ffffff"
     bordercolor="#666666"
     borderopacity="1.0"
     inkscape:pageopacity="1"
     inkscape:pageshadow="2"
     inkscape:zoom="3.959798"
     inkscape:cx="70.718618"
     inkscape:cy="71.602697"
     inkscape:document-units="px"
     inkscape:current-layer="layer3"
     showgrid="false"
     inkscape:window-width="1360"
     inkscape:window-height="744"
     inkscape:window-x="0"
     inkscape:window-y="24"
     inkscape:window-maximized="1" />
  <metadata
     id="metadata7">
    <rdf:RDF>
      <cc:Work
         rdf:about="">
        <dc:format>image/svg+xml</dc:format>
        <dc:type
           rdf:resource="http://purl.org/dc/dcmitype/StillImage" />
        <dc:title></dc:title>
      </cc:Work>
    </rdf:RDF>
  </metadata>
  <g
     inkscape:groupmode="layer"
     id="layer3"
     inkscape:label="Agogo"
     transform="translate(0,-437.5)">
    <path
       sodipodi:type="arc"
       style="fill:#a7a1a7;fill-opacity:0.26940637;stroke:none"
       id="path5056"
       sodipodi:cx="519.10712"
       sodipodi:cy="368.03571"
       sodipodi:rx="55.892857"
       sodipodi:ry="55.892857"
       d="m 574.99997,368.03571 c 0,30.86877 -25.02408,55.89285 -55.89285,55.89285 -30.86878,0 -55.89286,-25.02408 -55.89286,-55.89285 0,-30.86878 25.02408,-55.89286 55.89286,-55.89286 30.86877,0 55.89285,25.02408 55.89285,55.89286 z"
       transform="matrix(0.6823827,0,0,0.6823827,-298.09423,243.04665)" />
    <path
       sodipodi:type="arc"
       style="fill:#a9a9ac;fill-opacity:0.36529685;stroke:none"
       id="path5056-3"
       sodipodi:cx="519.10712"
       sodipodi:cy="368.03571"
       sodipodi:rx="55.892857"
       sodipodi:ry="55.892857"
       d="m 574.99997,368.03571 c 0,30.86877 -25.02408,55.89285 -55.89285,55.89285 -30.86878,0 -55.89286,-25.02408 -55.89286,-55.89285 0,-30.86878 25.02408,-55.89286 55.89286,-55.89286 30.86877,0 55.89285,25.02408 55.89285,55.89286 z"
       transform="matrix(0.70045572,0,0,0.70045572,-267.66947,271.66036)" />
    <path
       sodipodi:type="arc"
       style="fill:#d4aa00;fill-opacity:0.5148936;stroke:none"
       id="path5056-7"
       sodipodi:cx="519.10712"
       sodipodi:cy="368.03571"
       sodipodi:rx="55.892857"
       sodipodi:ry="55.892857"
       d="m 574.99997,368.03571 c 0,30.86877 -25.02408,55.89285 -55.89285,55.89285 -30.86878,0 -55.89286,-25.02408 -55.89286,-55.89285 0,-30.86878 25.02408,-55.89286 55.89286,-55.89286 30.86877,0 55.89285,25.02408 55.89285,55.89286 z"
       transform="matrix(0.37062315,0,0,0.37062315,-165.09869,361.02256)" />
    <path
       sodipodi:type="arc"
       style="fill:#212222;fill-opacity:0.71489366;stroke:none"
       id="path5056-7-0"
       sodipodi:cx="519.10712"
       sodipodi:cy="368.03571"
       sodipodi:rx="55.892857"
       sodipodi:ry="55.892857"
       d="m 574.99997,368.03571 c 0,30.86877 -25.02408,55.89285 -55.89285,55.89285 -30.86878,0 -55.89286,-25.02408 -55.89286,-55.89285 0,-30.86878 25.02408,-55.89286 55.89286,-55.89286 30.86877,0 55.89285,25.02408 55.89285,55.89286 z"
       transform="matrix(0.52876205,0,0,0.5332803,-157.05391,320.62464)" />
    <path
       sodipodi:type="arc"
       style="fill:#303331;fill-opacity:0.59574465;stroke:none"
       id="path5056-7-0-2"
       sodipodi:cx="519.10712"
       sodipodi:cy="368.03571"
       sodipodi:rx="55.892857"
       sodipodi:ry="55.892857"
       d="m 574.99997,368.03571 c 0,30.86877 -25.02408,55.89285 -55.89285,55.89285 -30.86878,0 -55.89286,-25.02408 -55.89286,-55.89285 0,-30.86878 25.02408,-55.89286 55.89286,-55.89286 30.86877,0 55.89285,25.02408 55.89285,55.89286 z"
       transform="matrix(0.2576668,0,0,0.25986855,-56.98507,376.67375)" />
  </g>
</svg>
